<svg width="20" height="20" viewBox="0 0 20 20" fill="none" xmlns="http://www.w3.org/2000/svg">
<g clip-path="url(#clip0_6014_3378)">
<path fill-rule="evenodd" clip-rule="evenodd" d="M13.089 9.41074C13.2453 9.56701 13.333 9.77894 13.333 9.99991C13.333 10.2209 13.2453 10.4328 13.089 10.5891L8.37488 15.3032C8.29801 15.3828 8.20605 15.4463 8.10438 15.49C8.00271 15.5337 7.89336 15.5567 7.78271 15.5576C7.67206 15.5586 7.56233 15.5375 7.45992 15.4956C7.3575 15.4537 7.26446 15.3918 7.18622 15.3136C7.10797 15.2353 7.04609 15.1423 7.00419 15.0399C6.96229 14.9375 6.94121 14.8277 6.94217 14.7171C6.94313 14.6064 6.96612 14.4971 7.00979 14.3954C7.05347 14.2937 7.11695 14.2018 7.19655 14.1249L11.3215 9.99991L7.19655 5.87491C7.04475 5.71774 6.96075 5.50724 6.96265 5.28874C6.96455 5.07024 7.05219 4.86123 7.2067 4.70672C7.3612 4.55222 7.57021 4.46458 7.78871 4.46268C8.00721 4.46078 8.21771 4.54477 8.37488 4.69657L13.089 9.41074Z" fill="black"/>
</g>
<defs>
<clipPath id="clip0_6014_3378">
<rect width="20" height="20" fill="white"/>
</clipPath>
</defs>
</svg>
