<svg width="40" height="40" viewBox="0 0 40 40" fill="none" xmlns="http://www.w3.org/2000/svg">
<rect width="40" height="40" rx="8" fill="#4D4D4D" fill-opacity="0.7"/>
<path d="M29.708 28.29C29.8973 28.4778 30.0038 28.7334 30.0038 29C30.0038 29.2667 29.8973 29.5223 29.708 29.71C29.5202 29.8993 29.2646 30.0058 28.998 30.0058C28.7313 30.0058 28.4758 29.8993 28.288 29.71L19.998 21.41L11.708 29.71C11.5202 29.8993 11.2646 30.0058 10.998 30.0058C10.7313 30.0058 10.4758 29.8993 10.288 29.71C10.0987 29.5223 9.99219 29.2667 9.99219 29C9.99219 28.7334 10.0987 28.4778 10.288 28.29L18.588 20L10.288 11.71C10.0343 11.4564 9.93526 11.0867 10.0281 10.7401C10.121 10.3936 10.3916 10.123 10.7381 10.0301C11.0846 9.9373 11.4543 10.0364 11.708 10.29L19.998 18.59L28.288 10.29C28.6801 9.8979 29.3159 9.8979 29.708 10.29C30.1001 10.6821 30.1001 11.3179 29.708 11.71L21.408 20L29.708 28.29Z" fill="white"/>
</svg>
