<svg width="20" height="20" viewBox="0 0 20 20" fill="none" xmlns="http://www.w3.org/2000/svg">
<path d="M8 0C12.4183 0 16 3.58172 16 8C16.0022 9.77666 15.4066 11.5028 14.3096 12.9004L19.71 18.29C19.8993 18.4778 20.0059 18.7334 20.0059 19C20.0059 19.2666 19.8993 19.5222 19.71 19.71C19.5222 19.8993 19.2666 20.0059 19 20.0059C18.7334 20.0059 18.4778 19.8993 18.29 19.71L12.9004 14.3096C11.5028 15.4066 9.77666 16.0022 8 16C3.58172 16 0 12.4183 0 8C0 3.58172 3.58172 0 8 0ZM8 2C4.68629 2 2 4.68629 2 8C2 11.3137 4.68629 14 8 14C11.3137 14 14 11.3137 14 8C14 4.68629 11.3137 2 8 2Z" fill="#4D4D4D"/>
</svg>
